<svg width="512" height="506" viewBox="0 0 512 506" fill="none" xmlns="http://www.w3.org/2000/svg">
<rect width="512" height="505.094" rx="48" fill="white"/>
<g clip-path="url(#clip0_32_2)">
<path d="M332.64 128.971C313.18 108.536 286 97.2822 256 97.2822C225.84 97.2822 198.57 108.468 179.2 128.777C159.62 149.31 150.08 177.215 152.32 207.348C156.76 266.797 203.27 315.157 256 315.157C308.73 315.157 355.16 266.807 359.67 207.367C361.94 177.507 352.34 149.66 332.64 128.971ZM432 533.032H80C75.3926 533.091 70.8298 532.149 66.6436 530.276C62.4574 528.404 58.753 525.647 55.8 522.207C49.3 514.649 46.68 504.329 48.62 493.893C57.06 448.353 83.4 410.098 124.8 383.243C161.58 359.403 208.17 346.282 256 346.282C303.83 346.282 350.42 359.413 387.2 383.243C428.6 410.088 454.94 448.343 463.38 493.883C465.32 504.319 462.7 514.639 456.2 522.197C453.248 525.639 449.544 528.398 445.358 530.272C441.171 532.146 436.608 533.089 432 533.032Z" fill="#2F9BF9"/>
<path d="M313.638 329.747H344.468C354.422 329.747 363.969 325.901 371.007 319.055C378.046 312.209 382 302.923 382 293.241V263.255M382 151.13V121.143C382 111.461 378.046 102.176 371.007 95.33C363.969 88.4838 354.422 84.6377 344.468 84.6377H313.638M198.362 329.747H167.532C157.578 329.747 148.031 325.901 140.993 319.055C133.954 312.209 130 302.923 130 293.241V263.255M130 151.13V121.143C130 111.461 133.954 102.176 140.993 95.33C148.031 88.4838 157.578 84.6377 167.532 84.6377H198.362" stroke="#8E8E93" stroke-width="16" stroke-linecap="round" stroke-linejoin="round"/>
</g>
<defs>
<clipPath id="clip0_32_2">
<rect width="512" height="498" fill="white" transform="translate(0 7)"/>
</clipPath>
</defs>
</svg>
